# AST/ASF file generated using VICON BodyLanguage
# -----------------------------------------------
:version 1.10
:name VICON
:units
  mass 1.0
  length 0.45
  angle deg
:documentation
   .ast/.asf automatically generated from VICON data using
   VICON BodyBuilder and BodyLanguage model FoxedUp or BRILLIANT.MOD
:root
   order TX TY TZ RX RY RZ
   axis XYZ
   position 0 0 0  
   orientation 0 0 0 
:bonedata
  begin
     id 1 
     name lhipjoint
     direction 0.521452 -0.77106 0.36545 
     length 2.0933 
     axis 0 0 0  XYZ
  end
  begin
     id 2 
     name lfemur
     direction 0.34202 -0.939693 0  
     length 6.83441  
     axis 0 0 20  XYZ
    dof rx ry rz
    limits (-160.0 20.0)
           (-70.0 70.0)
           (-60.0 70.0)
  end
  begin
     id 3 
     name ltibia
     direction 0.34202 -0.939693 0   
     length 7.28749   
     axis 0 0 20   XYZ
    dof rx
    limits (-10.0 170.0)
  end
  begin
     id 4 
     name lfoot
     direction 0.100608 -0.276418 0.955757   
     length 1.52195   
     axis -90 7.62852e-016 20   XYZ
    dof rx rz
    limits (-45.0 90.0)
           (-70.0 20.0)
  end
  begin
     id 5 
     name ltoes
     direction 1.53558e-011 -4.21907e-011 1   
     length 0.770459   
     axis -90 7.62852e-016 20   XYZ
    dof rx
    limits (-90.0 20.0)
  end
  begin
     id 6 
     name rhipjoint
     direction -0.488071 -0.788702 0.373812   
     length 2.04648  
     axis 0 0 0  XYZ 
  end
  begin
     id 7 
     name rfemur
     direction -0.34202 -0.939693 0   
     length 6.92583   
     axis 0 0 -20   XYZ
    dof rx ry rz
    limits (-160.0 20.0)
           (-70.0 70.0)
           (-70.0 60.0)
  end
  begin
     id 8 
     name rtibia
     direction -0.34202 -0.939693 0   
     length 7.41043   
     axis 0 0 -20   XYZ
    dof rx
    limits (-10.0 170.0)
 end
 begin
     id 9 
     name rfoot
     direction -0.0784433 -0.215521 0.973343   
     length 1.67708  
     axis -90 -7.62852e-016 -20   XYZ
    dof rx rz
    limits (-45.0 90.0)
           (-20.0 70.0)
  end
  begin
     id 10 
     name rtoes
     direction -1.53551e-011 -4.21842e-011 1   
     length 0.849787   
     axis -90 -7.62852e-016 -20   XYZ
    dof rx
    limits (-90.0 20.0)
  end
  begin
     id 11 
     name lowerback
     direction -0.0122332 0.997575 -0.0685192   
     length 1.98724   
     axis 0 0 0   XYZ
    dof rx ry rz
    limits (-20.0 45.0)
           (-30.0 30.0)
           (-30.0 30.0)
  end
  begin
     id 12 
     name upperback
     direction 0.0182347 0.999724 -0.0148421   
     length 1.99029   
     axis 0 0 0   XYZ
    dof rx ry rz
    limits (-20.0 45.0)
           (-30.0 30.0)
           (-30.0 30.0)
  end
  begin
     id 13 
     name thorax
     direction 0.0242908 0.99956 0.0170184   
     length 1.99573   
     axis 0 0 0   XYZ
    dof rx ry rz
    limits (-20.0 45.0)
           (-30.0 30.0)
           (-30.0 30.0)
  end
  begin
     id 14 
     name lowerneck
     direction 0.0654488 0.985533 0.156338   
     length 1.4285   
     axis 0 0 0   XYZ
    dof rx ry rz
    limits (-20.0 45.0)
           (-30.0 30.0)
           (-30.0 30.0)
  end
  begin
     id 15 
     name upperneck
     direction -0.02953 0.998556 -0.0448842   
     length 1.44709   
     axis 0 0 0   XYZ
    dof rx ry rz
    limits (-20.0 45.0)
           (-30.0 30.0)
           (-30.0 30.0)
  end
  begin
     id 16
     name head
     direction -0.0155588 0.999386 -0.0314063  
     length 1.44689  
     axis 0 0 0   XYZ
    dof rx ry rz
    limits (-20.0 45.0)
           (-30.0 30.0)
           (-30.0 30.0)
  end
  begin
     id 17 
     name lclavicle
     direction 0.968229 0.236071 -0.0824755  
     length 3.60593  
     axis 0 0 0   XYZ
    dof ry rz
    limits (-20.0 10.0)
           (0.0 20.0)
  end
  begin
     id 18 
     name lhumerus
     direction 1 -4.48968e-011 7.8138e-029   
     length 5.06035   
     axis 180 -30 -90   XYZ
    dof rx ry rz
    limits (-60.0 90.0)
           (-90.0 90.0)
           (-90.0 90.0)
  end
  begin
     id 19
     name lradius
     direction 1 -4.48967e-011 9.02887e-028   
     length 3.1478   
     axis 180 -30 -90   XYZ
    dof rx
    limits (-10.0 170.0)
  end
  begin
     id 20
     name lwrist
     direction 1 -4.48961e-011 7.20928e-028   
     length 1.5739   
     axis -5.52449e-016 90 90   XYZ
    dof ry
    limits (-180.0 0.0)
 end
  begin
     id 21 
     name lhand
     direction 1 -4.48972e-011 1.44186e-027   
     length 0.606747   
     axis -9.20027e-016 90 90   XYZ
    dof rx rz
    limits (-90.0 90.0)
           (-45.0 45.0)
  end
  begin
     id 22 
     name lfingers
     direction 1 -4.48943e-011 2.88371e-027   
     length 0.489175   
     axis -1.84005e-015 90 90   XYZ
    dof rx
    limits (0.0 90.0)
  end
  begin
     id 23
     name lthumb
     direction 0.707107 -6.34917e-011 0.707107   
     length 0.70236   
     axis -90 45 2.85299e-015   XYZ
    dof rx rz
    limits (-45.0 45.0)
           (-45.0 45.0)
  end
  begin
     id 24 
     name rclavicle
     direction -0.978165 0.207816 0.0022268   
     length 3.35425  
     axis 0 0 0   XYZ 
    dof ry rz
    limits (-10.0 20.0)
           (-20.0 0.0)
  end
  begin
     id 25 
     name rhumerus
     direction -1 -4.48964e-011 -4.02159e-027  
     length 5.12273   
     axis 180 30 90   XYZ
    dof rx ry rz
    limits (-90.0 60.0)
           (-90.0 90.0)
           (-90.0 90.0)
  end
  begin
     id 26 
     name rradius
     direction -1 -4.48966e-011 1.62746e-027   
     length 3.422   
     axis 180 30 90   XYZ
    dof rx
    limits (-10.0 170.0)
  end
  begin
     id 27 
     name rwrist
     direction -1 -4.4896e-011 7.20928e-028   
     length 1.711   
     axis -5.52449e-016 -90 -90   XYZ
    dof ry
    limits (-180.0 0.0)
  end
  begin
     id 28
     name rhand
     direction -1 -4.48979e-011 1.44186e-027   
     length 0.704599   
     axis -9.20027e-016 -90 -90   XYZ
    dof rx rz
    limits (-90.0 90.0)
           (-45.0 45.0)
  end
  begin
     id 29
     name rfingers
     direction -1 -4.48962e-011 2.88371e-027   
     length 0.568066   
     axis -1.84005e-015 -90 -90   XYZ
    dof rx
    limits (0.0 90.0)
  end
  begin
     id 30
     name rthumb
     direction -0.707107 -6.34949e-011 0.707107   
     length 0.815633   
     axis -90 -45 -2.85299e-015   XYZ
    dof rx rz
    limits (-45.0 45.0)
           (-45.0 45.0)
  end
:hierarchy
  begin
    root lhipjoint rhipjoint lowerback
    lhipjoint lfemur
    lfemur ltibia
    ltibia lfoot
    lfoot ltoes
    rhipjoint rfemur
    rfemur rtibia
    rtibia rfoot
    rfoot rtoes
    lowerback upperback
    upperback thorax
    thorax lowerneck lclavicle rclavicle
    lowerneck upperneck
    upperneck head
    lclavicle lhumerus
    lhumerus lradius
    lradius lwrist
    lwrist lhand lthumb
    lhand lfingers
    rclavicle rhumerus
    rhumerus rradius
    rradius rwrist
    rwrist rhand rthumb
    rhand rfingers
  end

#!OML:ASF Z:\Project 1\Capture day 1\Session 1\Male1.ASF
:FULLY-SPECIFIED
:DEGREES
445
root 24.8504 16.5088 -6.02099 -171.737 29.2847 -177.479
lowerback -7.63783 -0.800128 -0.0815146
upperback 0.097319 -1.04735 0.134071
thorax 4.38948 -0.514555 0.0669415
lowerneck -1.11783 -8.38436 -5.34797
upperneck -14.3957 -10.269 5.26764
head -3.95217 -4.7486 2.94183
rclavicle 1.39398e-014 2.38542e-015
rhumerus 77.7028 -5.8652 -60.358
rradius 20.6305
rwrist 49.7561
rhand -15.9277 22.8683
rfingers 7.12502
rthumb 10.2699 -6.86094
lclavicle 1.39398e-014 2.38542e-015
lhumerus -21.7647 12.4287 82.8113
lradius 13.7531
lwrist -17.1616
lhand -10.3066 44.7745
lfingers 7.12502
lthumb 15.6884 74.1585
rfemur -10.9594 -5.42603 26.7098
rtibia 16.7403
rfoot -10.6041 -9.70547
rtoes 4.94362
lfemur 11.684 -4.46264 -9.23963
ltibia 18.6473
lfoot 12.8246 5.32364
ltoes 51.1761
446
root 24.8495 16.5087 -6.01681 -171.702 29.2686 -177.334
lowerback -7.55497 -0.766553 0.0506677
upperback 0.113208 -1.01577 0.149891
thorax 4.35727 -0.496561 0.013675
lowerneck 1.19606 -9.25987 0.875311
upperneck -18.427 -11.9154 -0.80548
head -5.88145 -5.44743 0.218122
rclavicle -1.64991e-014 -3.57812e-015
rhumerus 78.9764 -6.10232 -66.085
rradius 19.1292
rwrist 55.2694
rhand -16.2196 23.5581
rfingers 7.12502
rthumb 9.98829 -6.18488
lclavicle -1.64991e-014 -3.57812e-015
lhumerus -21.7461 13.0344 82.5812
lradius 13.6111
lwrist -17.9551
lhand -9.8063 44.2097
lfingers 7.12502
lthumb 16.1702 73.5552
rfemur -10.9366 -5.35923 26.8454
rtibia 16.7485
rfoot -10.6261 -9.67977
rtoes 6.12487
lfemur 11.7387 -4.70371 -9.16175
ltibia 18.6338
lfoot 12.5204 5.56318
ltoes 51.51
447
root 24.8491 16.5073 -6.01301 -171.752 29.2371 -177.273
lowerback -7.46452 -0.873866 0.0724643
upperback 0.259016 -1.17276 0.346512
thorax 4.46191 -0.57716 0.187459
lowerneck 0.264087 -8.97137 -1.60186
upperneck -17.2887 -11.3459 1.33013
head -5.08345 -5.19949 1.12788
rclavicle -2.02512e-014 3.57812e-015
rhumerus 80.2363 -5.8874 -69.9371
rradius 18.1943
rwrist 59.0674
rhand -16.4215 23.8893
rfingers 7.12502
rthumb 9.79354 -5.86299
lclavicle -2.02512e-014 3.57812e-015
lhumerus -21.5066 15.1693 82.3095
lradius 13.206
lwrist -19.7288
lhand -9.62531 43.5592
lfingers 7.12502
lthumb 16.3444 72.8905
rfemur -10.8504 -5.2799 26.8969
rtibia 16.7438
rfoot -10.644 -9.69992
rtoes 6.79705
lfemur 11.8156 -4.8879 -9.13808
ltibia 18.6375
lfoot 11.9892 4.99324
ltoes 52.2114
448
root 24.8499 16.5059 -6.00792 -171.804 29.2003 -177.323
lowerback -7.39029 -0.75716 0.00241809
upperback 0.209119 -1.01002 0.34506
thorax 4.36877 -0.49794 0.244944
lowerneck 1.8843 -9.60895 2.09173
upperneck -19.7583 -12.546 -2.40113
head -6.61865 -5.64586 -0.346428
rclavicle 5.50385e-014 -1.07344e-014
rhumerus 79.8935 -6.19376 -69.0482
rradius 18.3019
rwrist 58.4011
rhand -16.354 23.7559
rfingers 7.12502
rthumb 9.85868 -5.99333
lclavicle 5.50385e-014 -1.07344e-014
lhumerus -21.5222 15.7671 82.2415
lradius 12.8972
lwrist -20.6188
lhand -9.96135 43.5492
lfingers 7.12502
lthumb 16.0209 72.9068
rfemur -10.8304 -5.29585 26.8769
rtibia 16.7364
rfoot -10.5911 -9.77805
rtoes 6.01455
lfemur 11.7976 -4.77301 -9.11586
ltibia 18.632
lfoot 12.5284 5.56054
ltoes 51.4474
449
root 24.8517 16.5065 -6.00294 -171.836 29.1945 -177.442
lowerback -7.3624 -0.721788 -0.129876
upperback 0.177616 -0.95007 0.326063
thorax 4.32186 -0.4708 0.30681
lowerneck 0.566395 -9.07342 -1.72856
upperneck -17.2546 -11.4914 1.50632
head -5.10272 -5.28092 1.21987
rclavicle -1.02374e-014 -9.14409e-015
rhumerus 79.4713 -6.30123 -67.4951
rradius 18.6746
rwrist 56.9826
rhand -16.2753 23.6177
rfingers 7.12502
rthumb 9.93452 -6.12786
lclavicle -1.02374e-014 -9.14409e-015
lhumerus -21.5804 15.2903 82.4198
lradius 12.9448
lwrist -20.1411
lhand -10.164 43.7974
lfingers 7.12502
lthumb 15.8257 73.1706
rfemur -10.8934 -5.39726 26.7945
rtibia 16.7624
rfoot -10.5869 -9.75626
rtoes 5.20168
lfemur 11.7349 -4.58881 -9.16527
ltibia 18.6052
lfoot 12.917 5.38419
ltoes 50.7692
450
root 24.8529 16.5062 -5.99965 -171.884 29.2676 -177.546
lowerback -7.34153 -0.682618 -0.165758
upperback 0.1743 -0.890505 0.221731
thorax 4.30508 -0.441086 0.225771
lowerneck 2.02273 -9.65768 2.0795
upperneck -19.4276 -12.5887 -2.10577
head -6.51664 -5.71126 -0.249413
rclavicle 3.762e-014 -2.38542e-015
rhumerus 79.4347 -6.38964 -67.6077
rradius 18.6544
rwrist 57.07
rhand -16.2744 23.7523
rfingers 7.12502
rthumb 9.93547 -5.9932
lclavicle 3.762e-014 -2.38542e-015
lhumerus -21.6611 14.4595 82.496
lradius 13.1543
lwrist -19.3977
lhand -9.95918 43.6355
lfingers 7.12502
lthumb 16.023 72.9929
rfemur -10.9404 -5.36918 26.6921
rtibia 16.8422
rfoot -10.6756 -9.72939
rtoes 5.34574
lfemur 11.7629 -4.48766 -9.26826
ltibia 18.548
lfoot 12.5001 4.91665
ltoes 49.8837
451
root 24.8545 16.505 -5.99634 -171.915 29.3457 -177.541
lowerback -7.28013 -0.606002 -0.120093
upperback 0.17652 -0.789738 0.151497
thorax 4.27058 -0.389605 0.139093
lowerneck -1.03742 -8.51878 -5.6915
upperneck -14.4275 -10.425 5.63739
head -3.93095 -4.82391 3.13111
rclavicle -9.42488e-014 3.18055e-015
rhumerus 79.4313 -6.51651 -67.7413
rradius 18.5239
rwrist 57.2867
rhand -16.2422 23.9653
rfingers 7.12502
rthumb 9.96646 -5.77879
lclavicle -9.42488e-014 3.18055e-015
lhumerus -21.6922 13.6928 82.5566
lradius 13.2649
lwrist -18.8326
lhand -9.76695 43.2654
lfingers 7.12502
lthumb 16.2081 72.6078
rfemur -10.9547 -5.32835 26.6896
rtibia 16.9349
rfoot -10.7611 -9.73266
rtoes 5.80088
lfemur 11.8699 -4.48139 -9.27782
ltibia 18.4743
lfoot 12.9013 5.29187
ltoes 50.5716
452
root 24.8571 16.5052 -5.9917 -171.955 29.3485 -177.564
lowerback -7.21388 -0.591765 -0.142873
upperback 0.188356 -0.767791 0.113284
thorax 4.24527 -0.379079 0.115343
lowerneck -0.948205 -8.55867 -5.23736
upperneck -14.6414 -10.5019 5.21893
head -4.06783 -4.85902 2.93105
rclavicle -4.39563e-014 3.97569e-016
rhumerus 79.4354 -6.58626 -67.6799
rradius 18.5302
rwrist 57.1807
rhand -16.2368 23.9586
rfingers 7.12502
rthumb 9.97169 -5.78522
lclavicle -4.39563e-014 3.97569e-016
lhumerus -21.7164 12.3168 82.8103
lradius 13.48
lwrist -17.4412
lhand -9.81854 43.126
lfingers 7.12502
lthumb 16.1584 72.4725
rfemur -10.976 -5.39061 26.6827
rtibia 17.0043
rfoot -10.8159 -9.69881
rtoes 5.79436
lfemur 11.9298 -4.51841 -9.28672
ltibia 18.4111
lfoot 12.8659 5.37862
ltoes 51.0435
453
root 24.8578 16.5065 -5.988 -171.972 29.3061 -177.67
lowerback -7.23316 -0.666608 -0.186078
upperback 0.229964 -0.860018 0.0104232
thorax 4.29875 -0.424922 0.0226699
lowerneck 0.492816 -9.04792 -1.5669
upperneck -17.1634 -11.3757 2.02083
head -5.04064 -5.2722 1.33846
rclavicle -3.24516e-014 -1.19271e-015
rhumerus 79.7983 -6.54804 -68.8833
rradius 18.3399
rwrist 58.081
rhand -16.3481 23.9963
rfingers 7.12502
rthumb 9.86434 -5.75264
lclavicle -3.24516e-014 -1.19271e-015
lhumerus -21.6863 11.157 82.8802
lradius 13.6998
lwrist -16.0699
lhand -9.91839 43.173
lfingers 7.12502
lthumb 16.0622 72.5273
rfemur -11.0365 -5.39685 26.5955
rtibia 17.0394
rfoot -10.8614 -9.71118
rtoes 5.17216
lfemur 11.8711 -4.51869 -9.35258
ltibia 18.3794
lfoot 12.8978 5.35266
ltoes 51.1027
454
root 24.854 16.5094 -5.98616 -171.899 29.258 -177.722
lowerback -7.31228 -0.736154 -0.12836
upperback 0.261183 -0.953668 -0.0785141
thorax 4.37349 -0.469056 -0.113324
lowerneck -0.679474 -8.61733 -3.72826
upperneck -15.321 -10.6156 4.22824
head -4.50243 -4.926 2.40254
rclavicle -2.21148e-014 -1.98785e-015
rhumerus 80.5539 -6.51989 -71.8136
rradius 17.7221
rwrist 60.6998
rhand -16.6102 24.2265
rfingers 7.12502
rthumb 9.61147 -5.53424
lclavicle -2.21148e-014 -1.98785e-015
lhumerus -21.586 10.9645 82.727
lradius 13.6974
lwrist -15.7383
lhand -9.92651 43.0408
lfingers 7.12502
lthumb 16.0544 72.3957
rfemur -11.1584 -5.55505 26.5611
rtibia 17.0324
rfoot -10.905 -9.57515
rtoes 5.40884
lfemur 11.7254 -4.53133 -9.38566
ltibia 18.3889
lfoot 12.8949 5.29113
ltoes 50.9019
455
root 24.8516 16.5121 -5.9837 -171.834 29.2203 -177.697
lowerback -7.32779 -0.692629 -0.0449496
upperback 0.236782 -0.903257 -0.0598296
thorax 4.35585 -0.442244 -0.135292
lowerneck -0.83798 -8.56957 -4.62901
upperneck -15.0021 -10.5029 4.99344
head -4.26532 -4.86796 2.77889
rclavicle -7.49418e-014 -1.59028e-015
rhumerus 78.6698 -6.53041 -63.8069
rradius 19.7258
rwrist 53.1065
rhand -16.2011 23.4097
rfingers 7.12502
rthumb 10.0061 -6.3324
lclavicle -7.49418e-014 -1.59028e-015
lhumerus -21.6036 10.7481 82.8526
lradius 13.7062
lwrist -15.6392
lhand -9.8759 43.0467
lfingers 7.12502
lthumb 16.1031 72.3976
rfemur -11.2318 -5.69198 26.5983
rtibia 17.0099
rfoot -10.9223 -9.43438
rtoes 6.31979
lfemur 11.6394 -4.63172 -9.38102
ltibia 18.4042
lfoot 12.8196 5.21176
ltoes 50.8036
